# AST/ASF file generated using VICON BodyLanguage
# -----------------------------------------------
:version 1.10
:name VICON
:units
  mass 1.0
  length 0.45
  angle deg
:documentation
   .ast/.asf automatically generated from VICON data using
   VICON BodyBuilder and BodyLanguage model FoxedUp or BRILLIANT.MOD
:root
   order TX TY TZ RX RY RZ
   axis XYZ
   position 0 0 0  
   orientation 0 0 0 
:bonedata
  begin
     id 1 
     name lhipjoint
     direction 0.646657 -0.683706 0.338203 
     length 2.4948 
     axis 0 0 0  XYZ
  end
  begin
     id 2 
     name lfemur
     direction 0.34202 -0.939693 0  
     length 6.79491  
     axis 0 0 20  XYZ
    dof rx ry rz
    limits (-160.0 20.0)
           (-70.0 70.0)
           (-60.0 70.0)
  end
  begin
     id 3 
     name ltibia
     direction 0.34202 -0.939693 0   
     length 7.56807   
     axis 0 0 20   XYZ
    dof rx
    limits (-10.0 170.0)
  end
  begin
     id 4 
     name lfoot
     direction 0.0679796 -0.186772 0.980048   
     length 2.53018   
     axis -90 7.62852e-016 20   XYZ
    dof rx rz
    limits (-45.0 90.0)
           (-70.0 20.0)
  end
  begin
     id 5 
     name ltoes
     direction 1.53625e-011 -4.21881e-011 1   
     length 1.26912   
     axis -90 7.62852e-016 20   XYZ
    dof rx
    limits (-90.0 20.0)
  end
  begin
     id 6 
     name rhipjoint
     direction -0.618868 -0.704065 0.348274   
     length 2.42265  
     axis 0 0 0  XYZ 
  end
  begin
     id 7 
     name rfemur
     direction -0.34202 -0.939693 0   
     length 6.73814   
     axis 0 0 -20   XYZ
    dof rx ry rz
    limits (-160.0 20.0)
           (-70.0 70.0)
           (-70.0 60.0)
  end
  begin
     id 8 
     name rtibia
     direction -0.34202 -0.939693 0   
     length 7.66799   
     axis 0 0 -20   XYZ
    dof rx
    limits (-10.0 170.0)
 end
 begin
     id 9 
     name rfoot
     direction -0.0727352 -0.199838 0.977125   
     length 2.57224  
     axis -90 -7.62852e-016 -20   XYZ
    dof rx rz
    limits (-45.0 90.0)
           (-20.0 70.0)
  end
  begin
     id 10 
     name rtoes
     direction -1.53501e-011 -4.21858e-011 1   
     length 1.28858   
     axis -90 -7.62852e-016 -20   XYZ
    dof rx
    limits (-90.0 20.0)
  end
  begin
     id 11 
     name lowerback
     direction -0.0172471 0.995767 -0.0902851   
     length 2.20206   
     axis 0 0 0   XYZ
    dof rx ry rz
    limits (-20.0 45.0)
           (-30.0 30.0)
           (-30.0 30.0)
  end
  begin
     id 12 
     name upperback
     direction -0.000110737 0.999714 0.0239043   
     length 2.19523   
     axis 0 0 0   XYZ
    dof rx ry rz
    limits (-20.0 45.0)
           (-30.0 30.0)
           (-30.0 30.0)
  end
  begin
     id 13 
     name thorax
     direction 0.00704869 0.997783 0.0661741   
     length 2.21977   
     axis 0 0 0   XYZ
    dof rx ry rz
    limits (-20.0 45.0)
           (-30.0 30.0)
           (-30.0 30.0)
  end
  begin
     id 14 
     name lowerneck
     direction -0.00407501 0.995527 0.0943846   
     length 1.83142   
     axis 0 0 0   XYZ
    dof rx ry rz
    limits (-20.0 45.0)
           (-30.0 30.0)
           (-30.0 30.0)
  end
  begin
     id 15 
     name upperneck
     direction 0.0640586 0.986486 -0.150807   
     length 1.84616   
     axis 0 0 0   XYZ
    dof rx ry rz
    limits (-20.0 45.0)
           (-30.0 30.0)
           (-30.0 30.0)
  end
  begin
     id 16
     name head
     direction 0.0188017 0.99791 -0.0618239  
     length 1.85932  
     axis 0 0 0   XYZ
    dof rx ry rz
    limits (-20.0 45.0)
           (-30.0 30.0)
           (-30.0 30.0)
  end
  begin
     id 17 
     name lclavicle
     direction 0.976074 0.206905 0.066852  
     length 3.81043  
     axis 0 0 0   XYZ
    dof ry rz
    limits (-20.0 10.0)
           (0.0 20.0)
  end
  begin
     id 18 
     name lhumerus
     direction 1 -4.48971e-011 1.86916e-027   
     length 5.37587   
     axis 180 -30 -90   XYZ
    dof rx ry rz
    limits (-60.0 90.0)
           (-90.0 90.0)
           (-90.0 90.0)
  end
  begin
     id 19
     name lradius
     direction 1 -4.48968e-011 1.69187e-027   
     length 3.35977   
     axis 180 -30 -90   XYZ
    dof rx
    limits (-10.0 170.0)
  end
  begin
     id 20
     name lwrist
     direction 1 -4.48968e-011 5.8978e-027   
     length 1.67988   
     axis -3.27506e-015 90 90   XYZ
    dof ry
    limits (-180.0 0.0)
 end
  begin
     id 21 
     name lhand
     direction 1 -4.49028e-011 1.18071e-026   
     length 0.561859   
     axis -7.52654e-015 90 90   XYZ
    dof rx rz
    limits (-90.0 90.0)
           (-45.0 45.0)
  end
  begin
     id 22 
     name lfingers
     direction 1 -4.48927e-011 2.35758e-026   
     length 0.452985   
     axis -1.50534e-014 90 90   XYZ
    dof rx
    limits (0.0 90.0)
  end
  begin
     id 23
     name lthumb
     direction 0.707107 -6.34898e-011 0.707107   
     length 0.650399   
     axis -90 45 5.69224e-014   XYZ
    dof rx rz
    limits (-45.0 45.0)
           (-45.0 45.0)
  end
  begin
     id 24 
     name rclavicle
     direction -0.988403 0.151789 0.00439714   
     length 3.6942  
     axis 0 0 0   XYZ 
    dof ry rz
    limits (-10.0 20.0)
           (-20.0 0.0)
  end
  begin
     id 25 
     name rhumerus
     direction -1 -4.48978e-011 1.62495e-027  
     length 5.22819   
     axis 180 30 90   XYZ
    dof rx ry rz
    limits (-90.0 60.0)
           (-90.0 90.0)
           (-90.0 90.0)
  end
  begin
     id 26 
     name rradius
     direction -1 -4.48961e-011 3.47796e-027   
     length 3.40764   
     axis 180 30 90   XYZ
    dof rx
    limits (-10.0 170.0)
  end
  begin
     id 27 
     name rwrist
     direction -1 -4.48949e-011 5.89602e-027   
     length 1.70382   
     axis -3.27506e-015 -90 -90   XYZ
    dof ry
    limits (-180.0 0.0)
  end
  begin
     id 28
     name rhand
     direction -1 -4.48977e-011 1.17973e-026   
     length 0.583255   
     axis -7.52654e-015 -90 -90   XYZ
    dof rx rz
    limits (-90.0 90.0)
           (-45.0 45.0)
  end
  begin
     id 29
     name rfingers
     direction -1 -4.49099e-011 2.36408e-026   
     length 0.470235   
     axis -1.50534e-014 -90 -90   XYZ
    dof rx
    limits (0.0 90.0)
  end
  begin
     id 30
     name rthumb
     direction -0.707107 -6.35011e-011 0.707107   
     length 0.675167   
     axis -90 -45 -5.69224e-014   XYZ
    dof rx rz
    limits (-45.0 45.0)
           (-45.0 45.0)
  end
:hierarchy
  begin
    root lhipjoint rhipjoint lowerback
    lhipjoint lfemur
    lfemur ltibia
    ltibia lfoot
    lfoot ltoes
    rhipjoint rfemur
    rfemur rtibia
    rtibia rfoot
    rfoot rtoes
    lowerback upperback
    upperback thorax
    thorax lowerneck lclavicle rclavicle
    lowerneck upperneck
    upperneck head
    lclavicle lhumerus
    lhumerus lradius
    lradius lwrist
    lwrist lhand lthumb
    lhand lfingers
    rclavicle rhumerus
    rhumerus rradius
    rradius rwrist
    rwrist rhand rthumb
    rhand rfingers
  end

#!OML:ASF G:\JayActor3\Patient Classification 1\Patient 1\Session 2\male.ASF
:FULLY-SPECIFIED
:DEGREES
1409
root -27.0584 16.9274 -6.10323 1237.36 -254.345 -920.859
lowerback -3.12586 -2.94932 2.2621
upperback -3.17906 -3.90242 1.52278
thorax -1.56035 -1.95469 0.232965
lowerneck -2.47351 -13.9974 -15.7318
upperneck 24.6325 -18.4001 3.33543
head 10.093 -9.60552 1.67503
rclavicle -8.64713e-015 -2.98177e-015
rhumerus -13.8346 48.7304 -69.07
rradius 104.238
rwrist -12.5632
rhand -31.152 19.8975
rfingers 7.12502
rthumb -4.42995 -10.0362
lclavicle -8.64713e-015 -2.98177e-015
lhumerus -58.2266 -25.8751 109.53
lradius 111.596
lwrist 27.2712
lhand -11.4501 7.00755
lfingers 7.12502
lthumb 14.5869 36.4746
rfemur 10.3075 0.255508 26.2134
rtibia 30.1242
rfoot -10.4624 -2.14743
rtoes 11.3463
lfemur -13.6582 1.66127 -14.4581
ltibia 25.6975
lfoot -6.90148 2.91905
ltoes 0.748281
1410
root -26.959 16.9413 -6.13104 1239.07 -253.918 -919.153
lowerback -3.16257 -3.11238 1.969
upperback -3.21857 -4.11367 1.59655
thorax -1.55673 -2.05393 0.466581
lowerneck -2.37514 -14.0112 -15.7151
upperneck 24.702 -18.4025 3.17491
head 10.0834 -9.62318 1.62467
rclavicle -1.11444e-014 -2.3556e-014
rhumerus -12.5702 48.3835 -67.967
rradius 104.435
rwrist -12.3965
rhand -31.6251 20.0826
rfingers 7.12502
rthumb -4.88674 -9.84102
lclavicle -1.11444e-014 -2.3556e-014
lhumerus -58.2155 -25.9389 109.571
lradius 111.642
lwrist 27.2858
lhand -11.4509 6.94943
lfingers 7.12502
lthumb 14.5861 36.4165
rfemur 9.62339 0.507696 25.5564
rtibia 31.5701
rfoot -9.6217 -2.10884
rtoes 12.0794
lfemur -12.9395 1.97086 -14.9249
ltibia 25.1344
lfoot -7.09272 3.12146
ltoes 0.989352
1411
root -26.8608 16.9522 -6.15814 1240.73 -253.504 -917.487
lowerback -3.18299 -3.27524 1.64239
upperback -3.25575 -4.32393 1.66523
thorax -1.55513 -2.15217 0.713994
lowerneck -2.30017 -14.0199 -15.6902
upperneck 24.7803 -18.3966 3.02022
head 10.0801 -9.63524 1.57445
rclavicle -2.35032e-014 8.08184e-015
rhumerus -11.3625 48.0154 -66.915
rradius 104.636
rwrist -12.2075
rhand -32.1528 20.2733
rfingers 7.12502
rthumb -5.39628 -9.63797
lclavicle -2.35032e-014 8.08184e-015
lhumerus -58.1879 -26.0022 109.584
lradius 111.68
lwrist 27.2662
lhand -11.395 6.89848
lfingers 7.12502
lthumb 14.6399 36.3617
rfemur 8.88411 0.731504 24.8715
rtibia 33.0968
rfoot -8.75146 -2.1026
rtoes 12.8461
lfemur -12.2367 2.31001 -15.417
ltibia 24.5759
lfoot -7.27443 3.27639
ltoes 1.19986
1412
root -26.7635 16.9603 -6.18485 1242.34 -253.087 -915.865
lowerback -3.18456 -3.43067 1.29922
upperback -3.28724 -4.5241 1.72715
thorax -1.55481 -2.2452 0.964395
lowerneck -2.24784 -14.0235 -15.6572
upperneck 24.8621 -18.3843 2.8789
head 10.0818 -9.64189 1.52678
rclavicle 2.1593e-014 -1.2921e-015
rhumerus -10.2071 47.6126 -65.9124
rradius 104.856
rwrist -12.0528
rhand -32.7245 20.5019
rfingers 7.12502
rthumb -5.94822 -9.39464
lclavicle 2.1593e-014 -1.2921e-015
lhumerus -58.1392 -26.0705 109.57
lradius 111.705
lwrist 27.2114
lhand -11.3008 6.84264
lfingers 7.12502
lthumb 14.7307 36.2992
rfemur 8.09539 0.934059 24.1618
rtibia 34.699
rfoot -7.83883 -2.118
rtoes 13.6201
lfemur -11.5461 2.67948 -15.9249
ltibia 24.0288
lfoot -7.45719 3.39347
ltoes 1.43591
1413
root -26.6675 16.9657 -6.2113 1243.89 -252.668 -914.283
lowerback -3.16378 -3.57867 0.942518
upperback -3.30973 -4.71452 1.77914
thorax -1.55493 -2.33333 1.21313
lowerneck -2.20638 -14.0192 -15.6191
upperneck 24.9322 -18.3652 2.76121
head 10.0822 -9.6426 1.48688
rclavicle -4.99446e-015 4.96962e-015
rhumerus -9.10034 47.1747 -64.9622
rradius 105.105
rwrist -11.9795
rhand -33.1643 20.6133
rfingers 7.12502
rthumb -6.37286 -9.2708
lclavicle -4.99446e-015 4.96962e-015
lhumerus -58.0796 -26.1491 109.538
lradius 111.729
lwrist 27.1629
lhand -11.2739 6.78238
lfingers 7.12502
lthumb 14.7566 36.2371
rfemur 7.26154 1.11721 23.4292
rtibia 36.3717
rfoot -6.87902 -2.16831
rtoes 14.3123
lfemur -10.8704 3.08832 -16.4467
ltibia 23.4997
lfoot -7.63407 3.46443
ltoes 1.64095
1414
root -26.5729 16.9685 -6.23763 1245.38 -252.239 -912.747
lowerback -3.11614 -3.71571 0.580723
upperback -3.32439 -4.89076 1.81975
thorax -1.56033 -2.41453 1.45466
lowerneck -2.17708 -14.0106 -15.5777
upperneck 24.9909 -18.3436 2.66446
head 10.082 -9.63964 1.45335
rclavicle 1.81391e-014 -4.96962e-015
rhumerus -8.05265 46.696 -64.072
rradius 105.387
rwrist -12.0146
rhand -33.4055 20.6039
rfingers 7.12502
rthumb -6.60565 -9.2731
lclavicle 1.81391e-014 -4.96962e-015
lhumerus -58.0157 -26.2303 109.491
lradius 111.751
lwrist 27.1101
lhand -11.3026 6.70807
lfingers 7.12502
lthumb 14.729 36.1648
rfemur 6.39027 1.29615 22.6797
rtibia 38.1082
rfoot -5.88277 -2.24552
rtoes 15.1246
lfemur -10.2091 3.53383 -16.9778
ltibia 22.994
lfoot -7.81034 3.49878
ltoes 1.85174
1415
root -26.4797 16.9686 -6.26403 1246.8 -251.799 -911.256
lowerback -3.03703 -3.84463 0.217684
upperback -3.33298 -5.0569 1.84808
thorax -1.57605 -2.49086 1.68648
lowerneck -2.12822 -13.9981 -15.5388
upperneck 25.0175 -18.324 2.59158
head 10.0693 -9.63609 1.43037
rclavicle 8.87574e-014 1.0138e-014
rhumerus -7.06793 46.189 -63.2535
rradius 105.698
rwrist -12.1561
rhand -33.4386 20.4935
rfingers 7.12502
rthumb -6.63766 -9.38247
lclavicle 8.87574e-014 1.0138e-014
lhumerus -57.9567 -26.3124 109.437
lradius 111.775
lwrist 27.0887
lhand -11.4725 6.61742
lfingers 7.12502
lthumb 14.5653 36.086
rfemur 5.48604 1.47514 21.9169
rtibia 39.9017
rfoot -4.8468 -2.35697
rtoes 15.7638
lfemur -9.56014 4.01277 -17.5164
ltibia 22.5148
lfoot -7.98706 3.50021
ltoes 2.08601
1416
root -26.3876 16.9665 -6.2906 1248.18 -251.349 -909.792
lowerback -2.93365 -3.96256 -0.146482
upperback -3.33183 -5.20959 1.86006
thorax -1.5951 -2.56075 1.90392
lowerneck -2.08328 -13.9908 -15.5023
upperneck 25.0242 -18.3153 2.53626
head 10.0531 -9.63604 1.41223
rclavicle -4.95471e-014 -1.43125e-014
rhumerus -6.14673 45.6652 -62.5068
rradius 106.009
rwrist -12.319
rhand -33.3929 20.3651
rfingers 7.12502
rthumb -6.59353 -9.51229
lclavicle -4.95471e-014 -1.43125e-014
lhumerus -57.8922 -26.3931 109.364
lradius 111.808
lwrist 27.1132
lhand -11.724 6.54248
lfingers 7.12502
lthumb 14.323 36.0284
rfemur 4.54779 1.66191 21.1379
rtibia 41.7434
rfoot -3.77091 -2.48281
rtoes 15.9418
lfemur -8.92289 4.51197 -18.0685
ltibia 22.0635
lfoot -8.14567 3.48534
ltoes 2.23341
1417
root -26.2967 16.9622 -6.31728 1249.5 -250.888 -908.369
lowerback -2.80552 -4.07177 -0.506514
upperback -3.32117 -5.35218 1.85522
thorax -1.61873 -2.62593 2.10371
lowerneck -2.03905 -13.9877 -15.4624
upperneck 25.0172 -18.315 2.49145
head 10.0334 -9.63868 1.39629
rclavicle -1.54704e-013 -3.97569e-015
rhumerus -5.29417 45.1463 -61.8417
rradius 106.297
rwrist -12.4158
rhand -33.383 20.2741
rfingers 7.12502
rthumb -6.58398 -9.60353
lclavicle -1.54704e-013 -3.97569e-015
lhumerus -57.819 -26.461 109.264
lradius 111.839
lwrist 27.1588
lhand -12.0247 6.46941
lfingers 7.12502
lthumb 14.0332 35.9757
rfemur 3.57933 1.86735 20.3538
rtibia 43.6244
rfoot -2.59929 -2.71507
rtoes 16.1788
lfemur -8.29063 5.03139 -18.6277
ltibia 21.6343
lfoot -8.28646 3.45605
ltoes 2.31431
1418
root -26.2069 16.9559 -6.34406 1250.76 -250.422 -906.987
lowerback -2.65493 -4.17164 -0.864591
upperback -3.30019 -5.48401 1.83405
thorax -1.64495 -2.68605 2.28744
lowerneck -2.00179 -13.9903 -15.4186
upperneck 25.0037 -18.3247 2.45708
head 10.0142 -9.64451 1.38153
rclavicle 6.10766e-014 1.74931e-014
rhumerus -4.50881 44.6268 -61.2513
rradius 106.564
rwrist -12.4476
rhand -33.3983 20.2136
rfingers 7.12502
rthumb -6.59873 -9.66356
lclavicle 6.10766e-014 1.74931e-014
lhumerus -57.7294 -26.5162 109.133
lradius 111.872
lwrist 27.2321
lhand -12.3107 6.43008
lfingers 7.12502
lthumb 13.7576 35.9552
rfemur 2.58021 2.09468 19.5702
rtibia 45.5351
rfoot -1.39426 -2.98776
rtoes 16.4684
lfemur -7.65845 5.56367 -19.1932
ltibia 21.2165
lfoot -8.40744 3.41352
ltoes 2.32306
1419
root -26.1182 16.9478 -6.3709 1251.97 -249.955 -905.647
lowerback -2.48533 -4.26471 -1.22155
upperback -3.27016 -5.60854 1.79886
thorax -1.67297 -2.74276 2.4577
lowerneck -1.97795 -13.9964 -15.3666
upperneck 24.9932 -18.3382 2.42228
head 9.99787 -9.65114 1.36391
rclavicle 1.00883e-014 -2.38542e-015
rhumerus -3.78574 44.1134 -60.7332
rradius 106.812
rwrist -12.4288
rhand -33.4246 20.1644
rfingers 7.12502
rthumb -6.62409 -9.71198
lclavicle 1.00883e-014 -2.38542e-015
lhumerus -57.6308 -26.5418 108.969
lradius 111.904
lwrist 27.2997
lhand -12.5527 6.41261
lfingers 7.12502
lthumb 13.5243 35.9534
rfemur 1.55468 2.34936 18.7926
rtibia 47.4666
rfoot -0.168448 -3.32825
rtoes 17.1357
lfemur -7.02049 6.11168 -19.7627
ltibia 20.7958
lfoot -8.50615 3.35437
ltoes 2.22961
